<?xml version="1.0" encoding="iso-8859-1"?>
<!-- Generator: Adobe Illustrator 16.0.0, SVG Export Plug-In . SVG Version: 6.00 Build 0)  -->
<!DOCTYPE svg PUBLIC "-//W3C//DTD SVG 1.1//EN" "http://www.w3.org/Graphics/SVG/1.1/DTD/svg11.dtd">
<svg version="1.1" xmlns="http://www.w3.org/2000/svg" xmlns:xlink="http://www.w3.org/1999/xlink" x="0px" y="0px"
	 width="31.236px" height="28.311px" viewBox="0 0 31.236 28.311" style="enable-background:new 0 0 31.236 28.311;"
	 xml:space="preserve">
	  <style>
           path{
              fill:#222;
           }
       </style>
<g id="c75_volume">
	<path  d="M4.363,9.297H0v9.715h4.363l8.244,6.114c0,0,1.512,1.268,1.512-0.041c0-1.312,0-20.858,0-22.051
		c0-1.028-1.33-0.024-1.33-0.024L4.363,9.297z"/>
	<path  d="M18.816,7.4c-0.436-0.434-1.137-0.434-1.568,0c-0.436,0.434-0.436,1.138,0,1.568
		c1.426,1.431,2.133,3.286,2.135,5.157c-0.002,1.875-0.709,3.742-2.135,5.166c-0.436,0.434-0.436,1.136,0,1.573
		c0.215,0.218,0.498,0.324,0.785,0.324c0.281,0,0.566-0.106,0.783-0.324c1.855-1.859,2.787-4.306,2.785-6.739
		C21.604,11.691,20.672,9.257,18.816,7.4z"/>


</g>
<g id="Capa_1">
</g>
</svg>
